<svg fill="#06b6d4" height="800px" width="800px" version="1.1" id="Layer_1" xmlns="http://www.w3.org/2000/svg" xmlns:xlink="http://www.w3.org/1999/xlink" 
	 viewBox="0 0 512.001 512.001" xml:space="preserve">
<g>
	<g>
		<path d="M394.613,210.15c-37.935,0-34.824-0.2-40.587,0.623c13.605,7.743,24.936,18.979,32.521,33.358
			c0.025,0.002,0.048,0.006,0.073,0.008c4.21,7.94,7.162,16.643,8.659,25.896c4.356,26.945-4.204,53.442-23.484,72.711
			l-29.051,29.051c-7.02,7.02-15.086,12.553-23.78,16.641c8.984,13.78,24.469,22.947,42.112,22.947h33.539
			c27.741,0,50.309-22.567,50.309-50.309v-91.644c20.569,18.416,33.539,45.146,33.539,74.874v134.156H277.227v-82.595
			c-2.396-0.182-4.797-0.196-7.173-0.576c-9.44-1.529-18.279-4.63-26.366-8.957v108.898c0,9.258,7.512,16.77,16.77,16.77H495.23
			c9.258,0,16.77-7.512,16.77-16.77V344.306C512,258.012,432.445,210.15,394.613,210.15z"/>
	</g>
</g>
<g>
	<g>
		<path d="M335.013,238.459l-31.628-15.809c-17.16-8.575-37.398-6.603-52.444,4.578l-58.997-58.997l23.719-23.719
			c6.55-6.55,6.55-17.163,0-23.713l-101.13-101.13c-26.208-26.208-68.645-26.24-94.864,0c-26.216,26.194-26.23,68.633,0,94.864
			l101.129,101.131c6.55,6.55,17.162,6.551,23.713,0l23.719-23.719l59.001,59.001c-11.176,15.052-13.156,35.283-4.581,52.452
			l15.809,31.617c15.442,30.863,56.36,37.281,80.572,13.068l29.052-29.052C372.35,294.762,365.822,253.874,335.013,238.459z"/>
	</g>
</g>
<g>
	<g>
		<path d="M461.69,109.534h-16.769v-16.77c0-9.258-7.512-16.769-16.77-16.769s-16.77,7.512-16.77,16.769v16.77h-16.769
			c-9.258,0-16.77,7.512-16.77,16.77c0,9.258,7.512,16.769,16.77,16.769h16.769v16.77c0,9.258,7.512,16.77,16.77,16.77
			s16.77-7.512,16.77-16.77v-16.77h16.769c9.258,0,16.77-7.512,16.77-16.769C478.46,117.045,470.948,109.534,461.69,109.534z"/>
	</g>
</g>
<g>
	<g>
		<path d="M193.378,377.846h-16.77v-16.769c0-9.258-7.512-16.77-16.769-16.77c-9.258,0-16.77,7.512-16.77,16.77v16.769H126.3
			c-9.258,0-16.769,7.512-16.769,16.77s7.512,16.77,16.769,16.77h16.77v16.769c0,9.258,7.512,16.77,16.77,16.77
			c9.258,0,16.769-7.512,16.769-16.77v-16.769h16.77c9.258,0,16.77-7.512,16.77-16.77S202.636,377.846,193.378,377.846z"/>
	</g>
</g>
<g>
	<g>
		<circle cx="294.003" cy="126.31" r="16.77"/>
	</g>
</g>
</svg>